<svg xmlns="http://www.w3.org/2000/svg" width="15.593" height="15.585" viewBox="0 0 15.593 15.585">
  <g id="Call" transform="translate(-847.613 -434.249)">
    <path id="Path_114183" data-name="Path 114183" d="M859.375,454.3a3.558,3.558,0,0,1-1.941-.6,33.149,33.149,0,0,1-9.227-9.233,3.454,3.454,0,0,1,.386-4.349c.216-.226.435-.45.664-.663a1.386,1.386,0,0,1,1.923-.04c.554.509,1.089,1.043,1.6,1.6a1.426,1.426,0,0,1-.093,1.982,1.329,1.329,0,0,0-.192,1.949,15.329,15.329,0,0,0,4.518,4.509,1.32,1.32,0,0,0,1.9-.2,1.448,1.448,0,0,1,2.064-.06c.525.49,1.03,1,1.522,1.526a1.283,1.283,0,0,1,.215,1.574A3.992,3.992,0,0,1,859.375,454.3Z" transform="translate(0 -4.467)" fill="#cc2832"/>
    <path id="Path_114184" data-name="Path 114184" d="M962.844,441.787c-.032.235.106.587-.287.6s-.29-.344-.3-.578a7.365,7.365,0,0,0-6.272-6.908c-.286-.041-.578-.041-.867-.054-.209-.01-.42-.03-.414-.3s.21-.3.424-.289a7.7,7.7,0,0,1,5.068,1.983A7.79,7.79,0,0,1,962.844,441.787Z" transform="translate(-99.638)" fill="#cc2832"/>
    <path id="Path_114185" data-name="Path 114185" d="M955.484,468.943a5.475,5.475,0,0,1,5.109,5.231c0,.058.023.133-.005.171a4.109,4.109,0,0,1-.288.317c-.1-.108-.249-.2-.276-.326-.085-.394-.084-.809-.186-1.2a4.881,4.881,0,0,0-4.5-3.622c-.081,0-.187.022-.237-.019a.539.539,0,0,1-.219-.3c-.006-.079.127-.209.225-.247A1.094,1.094,0,0,1,955.484,468.943Z" transform="translate(-99.804 -32.269)" fill="#cc2832"/>
    <path id="Path_114186" data-name="Path 114186" d="M954.973,503.416a3.106,3.106,0,0,1,3.04,2.885c.011.207,0,.419-.266.444s-.314-.172-.334-.385a2.424,2.424,0,0,0-2.347-2.339c-.219-.02-.428-.084-.366-.338C954.731,503.552,954.924,503.461,954.973,503.416Z" transform="translate(-99.625 -64.354)" fill="#cc2832"/>
  </g>
</svg>
