<svg xmlns="http://www.w3.org/2000/svg" xmlns:xlink="http://www.w3.org/1999/xlink" width="180.002" height="95.998" viewBox="0 0 180.002 95.998">
  <defs>
    <linearGradient id="linear-gradient" x1="0.323" y1="0.413" x2="1.208" y2="0.422" gradientUnits="objectBoundingBox">
      <stop offset="0" stop-color="#fff"/>
      <stop offset="1" stop-color="#f2f2f2"/>
    </linearGradient>
    <filter id="Subtraction_4" x="0.002" y="2.998" width="180" height="93" filterUnits="userSpaceOnUse">
      <feOffset dy="3" input="SourceAlpha"/>
      <feGaussianBlur stdDeviation="3" result="blur"/>
      <feFlood flood-opacity="0.161"/>
      <feComposite operator="in" in2="blur"/>
      <feComposite in="SourceGraphic"/>
    </filter>
  </defs>
  <g id="Group_64881" data-name="Group 64881" transform="translate(-944.998 -372.002)">
    <path id="Subtraction_2" data-name="Subtraction 2" d="M-9756,101h-16.5a46.2,46.2,0,0,1-18.1-3.654,46.313,46.313,0,0,1-14.78-9.965,46.337,46.337,0,0,1-9.966-14.781A46.2,46.2,0,0,1-9819,54.5a46.2,46.2,0,0,1,3.654-18.1,46.336,46.336,0,0,1,9.966-14.781,46.323,46.323,0,0,1,14.78-9.965A46.2,46.2,0,0,1-9772.5,8h16.5v9.687h-16.641A36.854,36.854,0,0,0-9809.453,54.5a36.855,36.855,0,0,0,36.813,36.813H-9756V101Z" transform="translate(10763.995 364.001)" fill="#cc2832"/>
    <g transform="matrix(1, 0, 0, 1, 945, 372)" filter="url(#Subtraction_4)">
      <g id="Subtraction_4-2" data-name="Subtraction 4" transform="translate(9873 -4)" fill="url(#linear-gradient)">
        <path d="M -9739.4990234375 87.5 L -9826.4990234375 87.5 C -9831.494140625 87.5 -9836.33984375 86.52179718017578 -9840.9013671875 84.59255981445312 C -9845.306640625 82.72904205322266 -9849.263671875 80.06114196777344 -9852.662109375 76.66295623779297 C -9856.060546875 73.26477813720703 -9858.728515625 69.30780029296875 -9860.591796875 64.90191650390625 C -9862.5205078125 60.3406982421875 -9863.4990234375 55.49520111083984 -9863.4990234375 50.5 C -9863.4990234375 45.50479888916016 -9862.5205078125 40.6593017578125 -9860.591796875 36.09807968139648 C -9858.728515625 31.69219970703125 -9856.060546875 27.73521995544434 -9852.662109375 24.33703994750977 C -9849.263671875 20.9388599395752 -9845.306640625 18.27095985412598 -9840.9013671875 16.40744018554688 C -9836.33984375 14.47819995880127 -9831.494140625 13.5 -9826.4990234375 13.5 L -9739.4990234375 13.5 C -9734.50390625 13.5 -9729.658203125 14.47819995880127 -9725.0966796875 16.40744018554688 C -9720.69140625 18.27095985412598 -9716.734375 20.9388599395752 -9713.3359375 24.33703994750977 C -9709.9375 27.73521995544434 -9707.26953125 31.69219970703125 -9705.40625 36.09807968139648 C -9703.4775390625 40.6593017578125 -9702.4990234375 45.50479888916016 -9702.4990234375 50.5 C -9702.4990234375 55.49520111083984 -9703.4775390625 60.3406982421875 -9705.40625 64.90191650390625 C -9707.26953125 69.30780029296875 -9709.9375 73.26477813720703 -9713.3359375 76.66295623779297 C -9716.734375 80.06114196777344 -9720.69140625 82.72904205322266 -9725.0966796875 84.59255981445312 C -9729.658203125 86.52179718017578 -9734.50390625 87.5 -9739.4990234375 87.5 Z" stroke="none"/>
        <path d="M -9826.4990234375 14 C -9831.4267578125 14 -9836.20703125 14.96492004394531 -9840.7060546875 16.86793518066406 C -9845.052734375 18.70625305175781 -9848.9560546875 21.33818817138672 -9852.30859375 24.69060516357422 C -9855.6611328125 28.04299926757812 -9858.29296875 31.94656372070312 -9860.130859375 36.29285430908203 C -9862.0341796875 40.7921028137207 -9862.9990234375 45.57208251953125 -9862.9990234375 50.5 C -9862.9990234375 55.42791748046875 -9862.0341796875 60.2078971862793 -9860.130859375 64.70714569091797 C -9858.29296875 69.05343627929688 -9855.6611328125 72.95700073242188 -9852.30859375 76.30939483642578 C -9848.9560546875 79.66181182861328 -9845.052734375 82.29374694824219 -9840.7060546875 84.13206481933594 C -9836.20703125 86.03507995605469 -9831.4267578125 87 -9826.4990234375 87 L -9739.4990234375 87 C -9734.5712890625 87 -9729.791015625 86.03507995605469 -9725.2919921875 84.13206481933594 C -9720.9453125 82.29374694824219 -9717.0419921875 79.66181182861328 -9713.689453125 76.30939483642578 C -9710.3369140625 72.95700073242188 -9707.705078125 69.05343627929688 -9705.8671875 64.70714569091797 C -9703.9638671875 60.2078971862793 -9702.9990234375 55.42791748046875 -9702.9990234375 50.5 C -9702.9990234375 45.57208251953125 -9703.9638671875 40.7921028137207 -9705.8671875 36.29285430908203 C -9707.705078125 31.94656372070312 -9710.3369140625 28.04299926757812 -9713.689453125 24.69060516357422 C -9717.0419921875 21.33818817138672 -9720.9453125 18.70625305175781 -9725.2919921875 16.86793518066406 C -9729.791015625 14.96492004394531 -9734.5712890625 14 -9739.4990234375 14 L -9826.4990234375 14 M -9826.4990234375 13 L -9739.4990234375 13 C -9718.7880859375 13 -9701.9990234375 29.78931427001953 -9701.9990234375 50.5 C -9701.9990234375 71.21068572998047 -9718.7880859375 88 -9739.4990234375 88 L -9826.4990234375 88 C -9847.2099609375 88 -9863.9990234375 71.21068572998047 -9863.9990234375 50.5 C -9863.9990234375 29.78931427001953 -9847.2099609375 13 -9826.4990234375 13 Z" stroke="none" fill="#cc2832"/>
      </g>
    </g>
  </g>
</svg>
