<svg xmlns="http://www.w3.org/2000/svg" width="18.499" height="18.5" viewBox="0 0 18.499 18.5">
  <path id="Union_2" data-name="Union 2" d="M-3640.745-811.935a2.443,2.443,0,0,1-2.44-2.439V-826.2a2.443,2.443,0,0,1,2.44-2.44h5.914a.75.75,0,0,1,.75.751.75.75,0,0,1-.75.75h-5.914a.941.941,0,0,0-.94.94v11.829a.941.941,0,0,0,.94.939h11.828a.941.941,0,0,0,.94-.939v-5.915a.749.749,0,0,1,.75-.75.75.75,0,0,1,.75.75v5.915a2.443,2.443,0,0,1-2.44,2.439Zm2.849-5.289a.749.749,0,0,1-.2-.712l.845-3.379a.75.75,0,0,1,.2-.348l8.026-8.026a2.529,2.529,0,0,1,1.8-.745,2.524,2.524,0,0,1,1.8.745,2.543,2.543,0,0,1,0,3.6l-8.026,8.026a.75.75,0,0,1-.348.2l-3.379.845a.753.753,0,0,1-.182.022A.749.749,0,0,1-3637.9-817.225Zm9.932-11.405-7.88,7.88-.492,1.965,1.966-.491,7.88-7.88a1.044,1.044,0,0,0,0-1.474,1.035,1.035,0,0,0-.738-.305A1.031,1.031,0,0,0-3627.964-828.63Z" transform="translate(3643.186 830.436)" fill="#cc8816"/>
</svg>
