<svg xmlns="http://www.w3.org/2000/svg" xmlns:xlink="http://www.w3.org/1999/xlink" width="32" height="32" viewBox="0 0 32 32">
  <defs>
    <linearGradient id="linear-gradient" x1="0.71" y1="0.893" x2="0.286" y2="0.1" gradientUnits="objectBoundingBox">
      <stop offset="0" stop-color="#1768c2"/>
      <stop offset="0.583" stop-color="#5092d9"/>
      <stop offset="0.915" stop-color="#6baaec"/>
      <stop offset="1" stop-color="#7ab6f3"/>
    </linearGradient>
  </defs>
  <g id="Facebook" transform="translate(-3505.5 -3113.5)">
    <circle id="Ellipse_5458" data-name="Ellipse 5458" cx="15.5" cy="15.5" r="15.5" transform="translate(3506 3114)" fill="#fff" stroke="rgba(0,0,0,0)" stroke-width="1"/>
    <g id="Group_64928" data-name="Group 64928" transform="translate(1998.756 44.915)">
      <g id="Group_64918" data-name="Group 64918" transform="translate(1510.244 3072.085)">
        <ellipse id="Ellipse_5454" data-name="Ellipse 5454" cx="12.783" cy="12.783" rx="12.783" ry="12.783" fill="url(#linear-gradient)"/>
      </g>
      <path id="Path_114261" data-name="Path 114261" d="M-167.687,96.827h2.131c.133,0,.119-.016.119.123,0,2.064,0,4.431,0,6.5h2.9c0-2.065,0-4.434,0-6.5,0-.132-.015-.119.123-.119h1.959c.084,0,.083,0,.1-.08q.186-1.232.377-2.463c.022-.141.02-.141-.125-.141h-2.34c-.089,0-.089,0-.09-.089v-.009q0-.811,0-1.623a2.041,2.041,0,0,1,.033-.379,1.218,1.218,0,0,1,.912-1.021,2.175,2.175,0,0,1,.6-.073h1.043c.105,0,.1.01.1-.1V88.763c0-.015,0-.03,0-.045,0-.041-.012-.059-.055-.064-.108-.014-.215-.033-.323-.047-.468-.061-.937-.1-1.408-.121a5.057,5.057,0,0,0-1.2.083,3.273,3.273,0,0,0-1.3.554,3.019,3.019,0,0,0-1.108,1.594,4.7,4.7,0,0,0-.2,1.4q0,.966,0,1.932c0,.094.006.089-.088.089h-2.222c-.034,0-.05.014-.048.049,0,.018,0,.036,0,.054q0,1.238,0,2.476C-167.8,96.832-167.809,96.827-167.687,96.827Z" transform="translate(1686.241 2988.905)" fill="#fff"/>
    </g>
  </g>
</svg>
