<svg xmlns="http://www.w3.org/2000/svg" width="16" height="16" viewBox="0 0 16 16">
  <path id="icons8_globe_earth" d="M11,3a8,8,0,1,0,8,8A8.01,8.01,0,0,0,11,3Zm0,1.333a1.23,1.23,0,0,1,.844.4A4.329,4.329,0,0,1,12.75,6.09a9.329,9.329,0,0,1,.516,1.577H8.734A9.33,9.33,0,0,1,9.25,6.09a4.329,4.329,0,0,1,.906-1.359A1.23,1.23,0,0,1,11,4.333Zm-2.608.529a7.321,7.321,0,0,0-.355.677A10.791,10.791,0,0,0,7.35,7.667H5.229A6.665,6.665,0,0,1,8.392,4.862Zm5.216,0a6.666,6.666,0,0,1,3.163,2.8H14.65a10.792,10.792,0,0,0-.686-2.128A7.322,7.322,0,0,0,13.608,4.862ZM4.638,9H7.124a16.23,16.23,0,0,0,0,4H4.638a6.716,6.716,0,0,1,0-4ZM8.482,9h5.036a14.643,14.643,0,0,1,.148,2,14.643,14.643,0,0,1-.148,2H8.482a14.644,14.644,0,0,1-.148-2A14.644,14.644,0,0,1,8.482,9Zm6.395,0h2.486a6.717,6.717,0,0,1,0,4H14.876A16.454,16.454,0,0,0,15,11,16.454,16.454,0,0,0,14.876,9ZM5.229,14.333H7.35a10.792,10.792,0,0,0,.686,2.128,7.316,7.316,0,0,0,.355.677A6.665,6.665,0,0,1,5.229,14.333Zm3.505,0h4.531a9.328,9.328,0,0,1-.516,1.577,4.329,4.329,0,0,1-.906,1.359,1.23,1.23,0,0,1-.844.4,1.23,1.23,0,0,1-.844-.4A4.329,4.329,0,0,1,9.25,15.91,9.329,9.329,0,0,1,8.734,14.333Zm5.915,0h2.121a6.665,6.665,0,0,1-3.163,2.8,7.317,7.317,0,0,0,.355-.677A10.793,10.793,0,0,0,14.65,14.333Z" transform="translate(-3 -3)" fill="#212529"/>
</svg>
