<svg xmlns="http://www.w3.org/2000/svg" width="14.169" height="14.191" viewBox="0 0 14.169 14.191">
  <g id="instagram-svgrepo-com" transform="translate(0)">
    <path id="Path_10" data-name="Path 10" d="M11.013,7.377a3.638,3.638,0,1,0,3.638,3.638A3.638,3.638,0,0,0,11.013,7.377Zm0,6a2.364,2.364,0,1,1,2.364-2.364A2.364,2.364,0,0,1,11.013,13.378Z" transform="translate(-3.934 -3.937)" fill="#ffffff"/>
    <circle id="Ellipse_13" data-name="Ellipse 13" cx="0.848" cy="0.848" r="0.848" transform="translate(10.013 2.458)" fill="#ffffff"/>
    <path id="Path_11" data-name="Path 11" d="M16.8,5.449a3.623,3.623,0,0,0-2.072-2.071A5.2,5.2,0,0,0,13,3.047c-.758-.033-1-.042-2.919-.042s-2.168,0-2.919.042a5.157,5.157,0,0,0-1.718.33A3.619,3.619,0,0,0,3.376,5.449a5.181,5.181,0,0,0-.33,1.72c-.034.757-.044,1-.044,2.919s0,2.166.044,2.919a5.189,5.189,0,0,0,.33,1.721A3.627,3.627,0,0,0,5.448,16.8a5.18,5.18,0,0,0,1.719.354c.758.033,1,.043,2.919.043s2.168,0,2.919-.043a5.2,5.2,0,0,0,1.72-.33A3.63,3.63,0,0,0,16.8,14.751a5.181,5.181,0,0,0,.33-1.72c.034-.757.044-1,.044-2.919s0-2.166-.044-2.919A5.178,5.178,0,0,0,16.8,5.449Zm-.958,7.5a3.968,3.968,0,0,1-.245,1.328,2.35,2.35,0,0,1-1.347,1.346,3.922,3.922,0,0,1-1.314.245c-.747.035-.958.043-2.875.043s-2.114,0-2.876-.043a3.9,3.9,0,0,1-1.313-.245,2.349,2.349,0,0,1-1.353-1.346,4,4,0,0,1-.245-1.313c-.034-.747-.042-.958-.042-2.875s0-2.113.042-2.876a3.964,3.964,0,0,1,.245-1.327A2.35,2.35,0,0,1,5.868,4.538a3.942,3.942,0,0,1,1.313-.245c.748-.034.958-.043,2.876-.043s2.114,0,2.875.043a3.9,3.9,0,0,1,1.314.245,2.353,2.353,0,0,1,1.347,1.347A4,4,0,0,1,15.837,7.2c.034.748.042.958.042,2.876s0,2.123-.034,2.875h-.009Z" transform="translate(-3.002 -3.005)" fill="#ffffff"/>
  </g>
</svg>
