<svg xmlns="http://www.w3.org/2000/svg" xmlns:xlink="http://www.w3.org/1999/xlink" width="32.32" height="32.321" viewBox="0 0 32.32 32.321">
  <defs>
    <radialGradient id="radial-gradient" cx="-0.006" cy="0.315" r="0.994" gradientUnits="objectBoundingBox">
      <stop offset="0" stop-color="#f8d24c"/>
      <stop offset="0.197" stop-color="#f3b364"/>
      <stop offset="0.41" stop-color="#e664a3"/>
      <stop offset="0.674" stop-color="#7d27c1"/>
      <stop offset="0.866" stop-color="#6c1ec6"/>
      <stop offset="1" stop-color="#681bc7"/>
    </radialGradient>
    <linearGradient id="linear-gradient" x1="0.223" y1="0.074" x2="1.042" y2="1.334" gradientUnits="objectBoundingBox">
      <stop offset="0" stop-color="#fff"/>
      <stop offset="1" stop-color="#dbdbdb"/>
    </linearGradient>
    <linearGradient id="linear-gradient-2" x1="-0.04" y1="-0.33" x2="1.556" y2="2.125" xlink:href="#linear-gradient"/>
    <linearGradient id="linear-gradient-3" x1="-1.46" y1="-2.508" x2="5.383" y2="8.005" xlink:href="#linear-gradient"/>
  </defs>
  <g id="Instagram" transform="translate(-1562.5 -3066.5)">
    <g id="Group_64937" data-name="Group 64937" transform="translate(-2011 -45)">
      <g id="Group_64930" data-name="Group 64930" transform="translate(68 -2)">
        <circle id="Ellipse_5458" data-name="Ellipse 5458" cx="15.5" cy="15.5" r="15.5" transform="translate(3506 3114)" fill="#fff" stroke="rgba(0,0,0,0)" stroke-width="1"/>
      </g>
      <ellipse id="Ellipse_5457" data-name="Ellipse 5457" cx="12.783" cy="12.783" rx="12.783" ry="12.783" transform="matrix(0.287, -0.958, 0.958, 0.287, 3574, 3136.494)" fill="url(#radial-gradient)"/>
      <g id="Group_64925" data-name="Group 64925" transform="translate(3583 3121)">
        <path id="Path_114262" data-name="Path 114262" d="M-317.5,239.432a5.474,5.474,0,0,0-.277-1.646,3.6,3.6,0,0,0-2.363-2.316,6,6,0,0,0-1.771-.261q-2.66-.07-5.319,0a6.311,6.311,0,0,0-1.578.2,3.615,3.615,0,0,0-2.493,2.212,4.452,4.452,0,0,0-.29,1.2,16.041,16.041,0,0,0-.075,1.631c-.006,1.055,0,2.109-.006,3.164,0,.168,0,.336.007.5.007.409.016.818.042,1.227a6.127,6.127,0,0,0,.07.639,3.876,3.876,0,0,0,1.038,2.167,3.58,3.58,0,0,0,.893.676,4.677,4.677,0,0,0,1.446.451,6.4,6.4,0,0,0,.74.069c.314.012.628.022.942.022,1.624,0,3.248.036,4.872-.037a5.646,5.646,0,0,0,1.413-.226,3.922,3.922,0,0,0,1.146-.564,3.76,3.76,0,0,0,1.41-2.2,7.865,7.865,0,0,0,.17-1.666C-317.451,242.935-317.44,241.184-317.5,239.432Zm-1.248,4.687c0,.451-.014.9-.057,1.352a3,3,0,0,1-.484,1.495,2.235,2.235,0,0,1-.511.529,2.461,2.461,0,0,1-.962.443,4.082,4.082,0,0,1-.819.115c-1.755.08-3.512.054-5.268.029a7.334,7.334,0,0,1-1.419-.121,2.513,2.513,0,0,1-1.464-.844,2.585,2.585,0,0,1-.514-1.1,6.259,6.259,0,0,1-.122-1.2c-.017-.466-.029-.932-.024-1.4,0-1.254-.019-2.507.03-3.76a5.858,5.858,0,0,1,.135-1.182,2.361,2.361,0,0,1,1.582-1.772,4.071,4.071,0,0,1,1.209-.2c1.757-.067,3.515-.047,5.272-.016a7.094,7.094,0,0,1,1.158.089,2.511,2.511,0,0,1,1.744,1.059,2.75,2.75,0,0,1,.423,1.174,18.045,18.045,0,0,1,.1,2.357Q-318.741,242.64-318.75,244.119Z" transform="translate(331.674 -235.174)" fill="url(#linear-gradient)"/>
        <path id="Path_114263" data-name="Path 114263" d="M-314.64,247.31a3.561,3.561,0,0,0-2.682-.253,3.6,3.6,0,0,0-1.413.781,3.314,3.314,0,0,0-.591.685,3.649,3.649,0,0,0-.452.943,3.7,3.7,0,0,0,0,2.183,3.636,3.636,0,0,0,.569,1.112,3.4,3.4,0,0,0,.546.57,3.633,3.633,0,0,0,.789.522,3.487,3.487,0,0,0,1.373.345,4.154,4.154,0,0,0,1.017-.087,3.825,3.825,0,0,0,1.239-.535,3.7,3.7,0,0,0,.892-.865,3.536,3.536,0,0,0,.666-2.671A3.53,3.53,0,0,0-314.64,247.31Zm-.452,5.288a2.059,2.059,0,0,1-.527.227,2.355,2.355,0,0,1-2.661-.981,2.334,2.334,0,0,1,.1-2.714,2.263,2.263,0,0,1,2.424-.872,2.261,2.261,0,0,1,1.783,1.827A2.349,2.349,0,0,1-315.092,252.6Z" transform="translate(323.399 -243.45)" fill="url(#linear-gradient-2)"/>
        <path id="Path_114264" data-name="Path 114264" d="M-296.721,243.532a.85.85,0,0,0-.848.859.838.838,0,0,0,.855.844.849.849,0,0,0,.847-.859A.855.855,0,0,0-296.721,243.532Z" transform="translate(307.618 -241.069)" fill="url(#linear-gradient-3)"/>
      </g>
    </g>
  </g>
</svg>
