<svg xmlns="http://www.w3.org/2000/svg" width="14.224" height="13.332" viewBox="0 0 14.224 13.332">
  <path id="print-svgrepo-com_1_" data-name="print-svgrepo-com (1)" d="M3.59,6.413,3.372,8.119h7.479l-.218-1.706A.915.915,0,0,0,9.7,5.5H4.5a.9.9,0,0,0-.913.913ZM.913,9.051h12.4a.9.9,0,0,1,.913.913V15.4a.9.9,0,0,1-.913.913H11.625v2.52H2.6v-2.52H.913A.9.9,0,0,1,0,15.4V9.964A.9.9,0,0,1,.913,9.051Zm9.8,8.867V12.027h-7.2v5.892ZM9.641,13.733H4.484a.238.238,0,0,1-.218-.238v-.278A.22.22,0,0,1,4.484,13H9.641a.238.238,0,0,1,.238.218v.278A.256.256,0,0,1,9.641,13.733Zm0,1.647H4.484a.238.238,0,0,1-.218-.238v-.278a.22.22,0,0,1,.218-.218H9.641a.238.238,0,0,1,.238.218v.278A.256.256,0,0,1,9.641,15.379Zm0,1.646H4.484a.238.238,0,0,1-.218-.238v-.278a.22.22,0,0,1,.218-.218H9.641a.238.238,0,0,1,.238.218v.278A.256.256,0,0,1,9.641,17.025Z" transform="translate(0 -5.5)" fill="#a4a4a4"/>
</svg>
