<svg xmlns="http://www.w3.org/2000/svg" width="18.775" height="18.793" viewBox="0 0 18.775 18.793">
  <path id="Path_114259" data-name="Path 114259" d="M62.608-391.214h-8.2l3.741-3.739a7.294,7.294,0,0,0-1.654-1.273,6.512,6.512,0,0,0-3.533-.847,6.951,6.951,0,0,0-4.368,1.744,6.924,6.924,0,0,0-2.081,3.156,6.81,6.81,0,0,0-.257,3.165,6.939,6.939,0,0,0,1.978,3.921,6.936,6.936,0,0,0,4.02,2.013,6.97,6.97,0,0,0,7.326-4.1c.01-.022.018-.045.027-.068.061-.146.083-.352.193-.423s.317-.03.481-.031c.647,0,1.294,0,1.969,0-.079.254-.141.495-.227.726a9.194,9.194,0,0,1-5.716,5.755,8.977,8.977,0,0,1-9.191-1.723,8.849,8.849,0,0,1-3.081-5.193,9.115,9.115,0,0,1,2.044-7.976,9.135,9.135,0,0,1,5.216-3.116c.392-.085.8-.115,1.2-.171.06-.008.119-.022.178-.033h1.1l.379.045a8.9,8.9,0,0,1,5.514,2.641c.041.041.085.08.128.12.034-.03.054-.045.071-.062Q61.184-398,62.5-399.325a.584.584,0,0,0,.066-.1.8.8,0,0,1,.035.165Q62.609-395.237,62.608-391.214Z" transform="translate(-43.833 399.426)" fill="#fff"/>
</svg>
