<svg version="1.2" xmlns="http://www.w3.org/2000/svg" viewBox="0 0 15 13" width="15" height="13">
	<title>Sound-svg</title>
	<style>
		.s0 { fill: none;stroke: #000000;stroke-linecap: round;stroke-linejoin: round } 
	</style>
	<g id="Sound">
		<g id="Group_64395">
		</g>
		<g id="Group_64396">
			<g id="Group_64394">
				<path id="Path_108153" fill-rule="evenodd" class="s0" d="m1 9.4v-5.6h2.1l3.5-2.8v11.3l-3.5-2.9z"/>
				<path id="Path_108154" fill-rule="evenodd" class="s0" d="m8 4.5q0.4 0.1 0.6 0.3 0.3 0.2 0.5 0.5 0.2 0.3 0.3 0.7 0.1 0.3 0 0.6 0.1 0.4 0 0.7-0.1 0.3-0.3 0.6-0.2 0.3-0.5 0.5-0.2 0.2-0.6 0.3"/>
				<path id="Path_108155" fill-rule="evenodd" class="s0" d="m9.4 3.1c0 0 2.2 0.6 2.2 3.5 0 3-2.2 3.5-2.2 3.5"/>
				<path id="Path_108156" fill-rule="evenodd" class="s0" d="m10.9 1.7c0 0 2.8 0.8 2.8 4.9 0 4.1-2.8 5-2.8 5"/>
			</g>
		</g>
	</g>
</svg>