<svg xmlns="http://www.w3.org/2000/svg" width="13.999" height="16.806" viewBox="0 0 13.999 16.806">
  <path id="Union_1" data-name="Union 1" d="M-5370-12.193h-5.389c-1.425,0-2.071-2.073-1.247-3.537a6.939,6.939,0,0,1,3.3-3.068,5.808,5.808,0,0,0,3.34,1.053,5.81,5.81,0,0,0,3.34-1.053,6.939,6.939,0,0,1,3.3,3.068c.824,1.464.178,3.537-1.247,3.537Zm-4.408-11.344v-1.055A4.407,4.407,0,0,1-5370-29a4.407,4.407,0,0,1,4.406,4.406v1.055A4.407,4.407,0,0,1-5370-19.131,4.407,4.407,0,0,1-5374.408-23.538Z" transform="translate(5377 28.999)" fill="#cc2832"/>
</svg>
